<svg width="40" height="40" viewBox="0 0 40 40" fill="none" xmlns="http://www.w3.org/2000/svg">
<path d="M34 2C36.2091 2 38 3.76633 38 5.9452L38 12.6798C38 14.8587 36.2091 16.625 34 16.625H28C25.7909 16.625 24 14.8587 24 12.6798L24 5.9452C24 3.76632 25.7909 2 28 2L34 2Z" stroke="#3F3F3F" stroke-width="2" stroke-linecap="round" stroke-linejoin="round"/>
<path d="M6 2C3.79086 2 2 3.76633 2 5.9452L2.00002 12.6798C2.00002 14.8587 3.79088 16.625 6.00002 16.625H12C14.2092 16.625 16 14.8587 16 12.6798L16 5.9452C16 3.76632 14.2091 2 12 2L6 2Z" stroke="#3F3F3F" stroke-width="2" stroke-linecap="round" stroke-linejoin="round"/>
<path d="M34 23.375C36.2092 23.375 38 25.1414 38 27.3202V34.0548C38 36.2337 36.2092 38 34 38H28C25.7909 38 24 36.2337 24 34.0548L24 27.3202C24 25.1414 25.7909 23.375 28 23.375H34Z" stroke="#3F3F3F" stroke-width="2" stroke-linecap="round" stroke-linejoin="round"/>
<path d="M6.00001 23.375C3.79088 23.375 2.00001 25.1414 2.00002 27.3202L2.00002 34.0548C2.00002 36.2337 3.79088 38 6.00002 38H12C14.2092 38 16 36.2337 16 34.0548L16 27.3202C16 25.1414 14.2092 23.375 12 23.375H6.00001Z" stroke="#3F3F3F" stroke-width="2" stroke-linecap="round" stroke-linejoin="round"/>
</svg>
